<svg width="215" height="87" viewBox="0 0 215 87" fill="none" xmlns="http://www.w3.org/2000/svg">
<g filter="url(#filter0_i_443_1553)">
<ellipse cx="47.4594" cy="38.0633" rx="23.3151" ry="22.2418" fill="#FCF1DC"/>
<path d="M59.7032 30.395C56.2889 36.5594 54.3802 42.0904 55.44 42.7488C56.4997 43.4072 60.1266 38.9437 63.5408 32.7793C65.2498 29.6937 66.5816 26.7668 67.3527 24.5303C67.6188 23.7584 67.8182 23.0688 67.9432 22.4832C68.0012 22.2114 68.0433 21.9619 68.0685 21.7371C68.0936 21.514 68.1021 21.315 68.0934 21.1425C68.0751 20.7809 67.9809 20.5353 67.804 20.4254C67.5624 20.2753 67.1873 20.3915 66.7116 20.7335C66.5526 20.8477 66.3824 20.9873 66.2022 21.1505C65.9591 21.3707 65.6977 21.6341 65.4212 21.9369C63.8267 23.6829 61.7276 26.74 59.7032 30.395Z" fill="#95B26F"/>
<path d="M65.3741 21.2454C65.6501 21.2047 65.9262 21.173 66.2022 21.1505C65.9591 21.3707 65.6977 21.6341 65.4212 21.9369C65.2866 21.7803 65.1501 21.6257 65.0118 21.4731C65.1313 21.3942 65.252 21.3183 65.3741 21.2454Z" fill="#95B26F"/>
<path d="M66.5705 20.6474C66.6177 20.6757 66.6647 20.7044 66.7116 20.7335C66.5526 20.8477 66.3824 20.9873 66.2022 21.1505C65.9262 21.173 65.6501 21.2047 65.3741 21.2454C65.7599 21.015 66.159 20.8151 66.5705 20.6474Z" fill="#95B26F"/>
<path fill-rule="evenodd" clip-rule="evenodd" d="M65.4212 21.9369C65.2866 21.7803 65.1501 21.6257 65.0118 21.4731C64.5547 21.7752 64.1172 22.1211 63.7003 22.5077C63.6032 22.5977 63.5073 22.6899 63.4124 22.7843C60.677 23.338 58.1059 24.552 55.795 26.2995C49.7503 30.8706 45.4867 39.092 44.7211 48.6926C44.123 52.3109 43.987 55.8378 44.2668 59.1247C44.3169 59.7126 44.3802 60.2928 44.4566 60.8644C44.8789 60.9579 45.3048 61.0385 45.7338 61.1059C47.406 61.3686 49.1252 61.4304 50.8633 61.272C52.7842 61.2482 54.786 60.763 56.7678 59.8659C58.8866 59.0295 60.8297 57.8714 62.557 56.4572C63.9728 55.298 65.2436 53.9666 66.3474 52.4993C67.9068 50.4263 69.1329 48.0818 69.9634 45.5675C70.7325 43.239 71.1624 40.7648 71.2036 38.2258C71.5844 33.2733 70.5242 28.7945 68.0881 25.7549C67.8543 25.3375 67.609 24.9291 67.3527 24.5303C67.6188 23.7584 67.8182 23.0688 67.9432 22.4832C68.0012 22.2114 68.0433 21.9619 68.0685 21.7371C68.0936 21.514 68.1021 21.315 68.0934 21.1425C68.0751 20.7809 67.9809 20.5353 67.804 20.4254C67.5624 20.2753 67.1873 20.3915 66.7116 20.7335C66.5526 20.8477 66.3824 20.9873 66.2022 21.1505C65.9591 21.3707 65.6977 21.6341 65.4212 21.9369Z" fill="#95B26F"/>
<path d="M36.5135 30.3878C40.2447 36.5495 42.3306 42.078 41.1725 42.7361C40.0143 43.3942 36.0508 38.9326 32.3196 32.771C30.452 29.6868 28.9966 26.7612 28.1539 24.5257C27.8631 23.7541 27.6453 23.0648 27.5086 22.4795C27.4452 22.2078 27.3993 21.9585 27.3717 21.7338C27.3443 21.5107 27.335 21.3118 27.3445 21.1394C27.3645 20.778 27.4674 20.5325 27.6607 20.4227C27.9248 20.2726 28.3347 20.3887 28.8546 20.7305C29.0283 20.8448 29.2143 20.9842 29.4112 21.1474C29.677 21.3675 29.9626 21.6308 30.2648 21.9334C32.0072 23.6787 34.3012 26.7344 36.5135 30.3878Z" fill="#B4D17D"/>
<path d="M30.3162 21.2423C30.0146 21.2015 29.7128 21.1699 29.4112 21.1474C29.677 21.3675 29.9626 21.6308 30.2648 21.9334C30.4118 21.7769 30.561 21.6223 30.7121 21.4699C30.5816 21.391 30.4496 21.3151 30.3162 21.2423Z" fill="#B4D17D"/>
<path d="M29.0087 20.6445C28.9572 20.6728 28.9058 20.7014 28.8546 20.7305C29.0283 20.8448 29.2143 20.9842 29.4112 21.1474C29.7128 21.1699 30.0146 21.2015 30.3162 21.2423C29.8946 21.012 29.4585 20.8121 29.0087 20.6445Z" fill="#B4D17D"/>
<path fill-rule="evenodd" clip-rule="evenodd" d="M30.2648 21.9334C30.4118 21.7769 30.561 21.6223 30.7121 21.4699C31.2116 21.7718 31.6898 22.1176 32.1454 22.5039C32.2514 22.5939 32.3563 22.6861 32.46 22.7804C35.4493 23.3339 38.2591 24.5474 40.7844 26.2941C47.3902 30.8632 52.0496 39.0809 52.8862 48.6772C53.5399 52.2939 53.6884 55.8193 53.3827 59.1047C53.328 59.6923 53.2588 60.2722 53.1753 60.8437C52.7138 60.9371 52.2484 61.0177 51.7796 61.085C49.9521 61.3476 48.0733 61.4093 46.1739 61.2511C44.0747 61.2273 41.8871 60.7423 39.7214 59.8456C37.4059 59.0096 35.2824 57.852 33.3948 56.4384C31.8476 55.2797 30.4588 53.9489 29.2525 52.4822C27.5484 50.4102 26.2085 48.0667 25.301 45.5536C24.4604 43.226 23.9906 40.7529 23.9456 38.2151C23.5295 33.2648 24.6881 28.788 27.3503 25.7497C27.6058 25.3325 27.8739 24.9243 28.1539 24.5257C27.8631 23.7541 27.6453 23.0648 27.5086 22.4795C27.4452 22.2078 27.3993 21.9585 27.3717 21.7338C27.3443 21.5107 27.335 21.3118 27.3445 21.1394C27.3645 20.778 27.4674 20.5325 27.6607 20.4227C27.9248 20.2726 28.3347 20.3887 28.8546 20.7305C29.0283 20.8448 29.2143 20.9842 29.4112 21.1474C29.677 21.3675 29.9626 21.6308 30.2648 21.9334Z" fill="#B4D17D"/>
<ellipse cx="43.7895" cy="21.7834" rx="1.18351" ry="2.52227" fill="black"/>
<ellipse cx="50.891" cy="21.7834" rx="1.18351" ry="2.52227" fill="black"/>
<path d="M74.7153 52.8354C74.8875 52.9456 75.0281 53.0879 75.1373 53.2564C75.6383 54.0288 75.482 55.3494 74.7168 56.6255C74.6101 56.8033 74.4917 56.9803 74.3615 57.1548C73.0938 58.8546 71.1968 59.6766 70.1244 58.9909C69.052 58.3051 69.2104 56.3712 70.4781 54.6715C71.0015 53.9697 71.6321 53.4176 72.2676 53.0594C73.1716 52.5499 74.0856 52.4327 74.7153 52.8354Z" fill="#303116"/>
<path d="M69.8081 51.256C69.9609 51.3812 70.0485 51.5615 70.076 51.7809C70.1612 52.4596 69.6718 53.5126 68.7627 54.4646C67.5597 55.7244 66.0773 56.3303 65.4517 55.8181C65.0473 55.487 65.0998 54.7699 65.5122 53.9639C65.5974 53.7975 65.6979 53.6273 65.8129 53.4559C66.0027 53.173 66.232 52.887 66.497 52.6095C66.5054 52.6007 66.5139 52.5919 66.5223 52.5832C66.5302 52.5749 66.5382 52.5668 66.5461 52.5586C66.7079 52.3926 66.8744 52.2384 67.043 52.097C68.118 51.1955 69.2745 50.8192 69.8081 51.256Z" fill="#303116"/>
<path fill-rule="evenodd" clip-rule="evenodd" d="M41.2549 54.3034L41.2238 54.3383C41.3272 54.2995 41.4303 54.2602 41.5332 54.2204C41.6538 54.1737 41.774 54.1262 41.8939 54.0781C43.2203 53.545 44.4975 52.9252 45.7175 52.226C45.9265 52.1658 46.1374 52.1096 46.35 52.0575C46.8323 51.9396 47.3234 51.8431 47.8222 51.7693C48.6042 51.6537 49.4052 51.5937 50.2206 51.5937C51.4198 51.5937 52.5878 51.7234 53.7104 51.9693C53.8574 52.0015 54.0036 52.0357 54.149 52.0718C55.2162 52.3371 56.2396 52.7079 57.2069 53.1721C57.1822 53.1537 57.1574 53.1354 57.1325 53.1171C57.1608 53.1367 57.1885 53.1565 57.2157 53.1763C57.2751 53.2198 57.3316 53.264 57.3852 53.3087C57.8619 53.7064 58.1063 54.1499 58.0221 54.573C57.9243 55.065 57.4005 55.4364 56.6323 55.6394C56.8451 55.6577 57.0589 55.681 57.2735 55.7096C57.0175 55.6911 56.7598 55.6785 56.5006 55.672C55.8761 55.8165 55.1072 55.8555 54.2817 55.7658C52.9789 55.9096 51.7243 56.2074 50.5378 56.6398C49.8854 56.9498 49.2913 57.3236 48.7713 57.7547C48.6444 57.8598 48.522 57.9684 48.4042 58.0802C48.255 58.3867 48.1161 58.6984 47.988 59.015C47.8761 59.2915 47.7725 59.5717 47.6774 59.8553C47.4085 60.6569 47.2076 61.4861 47.0807 62.3372C47.9939 62.4155 48.919 62.4555 49.854 62.4555C53.035 62.4555 56.1006 61.9924 58.9782 61.1342C60.6775 60.6274 62.3113 59.9828 63.8646 59.2144C64.0335 59.1309 64.2014 59.0459 64.3683 58.9595C64.6578 58.8096 64.9443 58.6553 65.2279 58.4969C67.8608 57.0252 70.2336 55.187 72.2658 53.0574L72.2676 53.0594C73.1716 52.5499 74.0856 52.4327 74.7153 52.8354C74.8875 52.9456 75.0281 53.0879 75.1373 53.2564C75.6383 54.0288 75.482 55.3494 74.7168 56.6255C74.7311 56.6545 74.7454 56.6835 74.7596 56.7126C74.7803 56.7549 74.8007 56.7974 74.821 56.8399C72.9887 58.6898 70.8944 60.3086 68.5934 61.6445C68.0847 61.9399 67.5658 62.2215 67.0374 62.4886C66.9085 62.5843 66.7789 62.6789 66.6484 62.7726C66.3038 63.0199 65.9534 63.2604 65.5973 63.4939C61.1987 66.3777 55.9385 68.186 50.2508 68.512C49.6346 68.5473 49.0134 68.5653 48.3877 68.5653C48.0899 68.5653 47.7931 68.5612 47.4974 68.5531C46.1139 68.5154 44.7539 68.3901 43.4234 68.1829C42.4985 68.0388 41.5879 67.8552 40.6936 67.6339C38.5342 67.0995 36.47 66.3457 34.5298 65.3992C29.8536 63.1182 25.8976 59.7188 23.0655 55.5792C20.0673 51.1968 18.3287 45.9849 18.3287 40.3924C18.3287 37.1622 18.9087 34.0591 19.9764 31.1693C22.4543 24.4631 27.559 18.9066 34.1369 15.5807C27.1863 20.741 22.7275 28.721 22.7275 37.6769C22.7275 43.6052 24.6811 49.1057 28.0179 53.6439C28.9884 54.6051 30.0304 55.5023 31.136 56.328C34.6728 56.2112 38.0542 55.5218 41.1778 54.3556C41.2034 54.3381 41.2292 54.3207 41.2549 54.3034ZM46.9666 51.4698C47.1519 51.3514 47.3357 51.2312 47.5181 51.109C47.4617 51.1186 47.4054 51.1285 47.3494 51.1387C47.2182 51.2484 47.0906 51.3588 46.9666 51.4698ZM62.063 56.7872L62.0472 56.797C61.9121 56.8806 61.775 56.9634 61.6357 57.0452C61.1466 57.3325 60.6319 57.608 60.0942 57.8691C59.4789 58.1678 58.8335 58.4475 58.1617 58.704C55.9887 59.5337 53.8266 60.0113 51.8747 60.1537C52.8831 60.3278 53.9231 60.4189 54.986 60.4189C56.6126 60.4189 58.1853 60.2056 59.6735 59.8077C60.961 59.4634 62.1853 58.9808 63.3262 58.3784C63.4026 58.3381 63.4786 58.2972 63.5543 58.2558C63.7844 58.1298 64.011 57.999 64.2339 57.8633C66.7148 56.3539 68.7397 54.2546 70.076 51.7809C70.0485 51.5615 69.9609 51.3812 69.8081 51.256C69.2745 50.8192 68.118 51.1955 67.043 52.097C66.8033 52.3944 66.5524 52.6837 66.291 52.9642C66.382 52.8289 66.4671 52.6937 66.5461 52.5586L66.5223 52.5832L66.497 52.6095C66.232 52.887 66.0027 53.173 65.8129 53.4559C65.6979 53.6273 65.5974 53.7975 65.5122 53.9639C64.6368 54.9519 63.4652 55.9172 62.063 56.7872ZM67.1482 49.2701C67.0559 49.2256 66.963 49.182 66.8697 49.1391C66.9536 49.1534 67.0372 49.1684 67.1207 49.1839C67.1266 49.2014 67.1323 49.219 67.1379 49.2367L67.1482 49.2701Z" fill="#303116"/>
</g>
<path d="M116.9 38.7478L128.08 37.7678L127.18 33.7078L118.52 34.7078L117.48 33.7478L117.76 27.0878L118.78 26.1878L129.32 27.1678L129.16 29.0478L119.6 28.1678L119.4 32.7078L127.8 31.7678L128.82 32.4878L130.16 38.4078L129.3 39.5678L117.08 40.6078L116.9 38.7478ZM136.059 39.7078L136.859 31.3678L138.039 30.5478L142.399 31.7278L146.619 30.5478L147.819 31.4278L148.239 39.7478L146.359 39.8478L145.979 32.7078L143.239 33.4478L143.279 39.7678L141.419 39.8078L141.359 33.4278L138.639 32.6678L137.939 39.8678L136.059 39.7078ZM164.138 39.9278L163.778 39.5078L155.518 40.8278L154.438 39.6878L155.598 35.1078L156.498 34.3878H162.818L162.398 31.2678L155.198 33.0278L154.738 31.2078L162.958 29.1878L164.118 29.9878L165.238 38.2878L166.638 38.6878L166.138 40.4878L164.138 39.9278ZM163.258 37.6678L163.078 36.2878H157.238L156.618 38.7278L163.258 37.6678ZM172.032 29.9678L173.912 29.9078L173.972 32.3678L178.532 30.2078L179.332 31.9478L174.032 34.4278L174.232 40.4678L172.332 40.5078L172.032 29.9678ZM189.098 38.1478L193.018 39.2678L192.518 41.0678L187.818 39.7478L187.138 38.7478L187.638 33.3678L183.698 33.6478L183.538 31.7478L187.818 31.4478L188.018 29.3478L189.898 29.5278L189.738 31.3278L194.237 31.0078L194.358 32.8678L189.558 33.2278L189.098 38.1478ZM117 60.8278L117.9 46.7478L118.86 45.8878H128.72L129.68 46.7278L130.38 53.7478L129.48 54.8078L120.38 55.3878L120.26 53.5078L128.4 52.9878L127.88 47.7478H119.72L118.88 60.9478L117 60.8278ZM146.076 59.9278L145.716 59.5078L137.456 60.8278L136.376 59.6878L137.536 55.1078L138.436 54.3878H144.756L144.336 51.2678L137.136 53.0278L136.676 51.2078L144.896 49.1878L146.056 49.9878L147.176 58.2878L148.576 58.6878L148.076 60.4878L146.076 59.9278ZM145.196 57.6678L145.016 56.2878H139.176L138.556 58.7278L145.196 57.6678ZM160.79 53.0078L156.53 53.6878L155.65 59.5878L153.77 59.3078L154.77 52.7278L155.55 51.9278L161.55 50.9878L162.65 51.8678L163.03 59.7278L161.13 59.8278L160.79 53.0078ZM174.199 58.1478L178.119 59.2678L177.619 61.0678L172.919 59.7478L172.239 58.7478L172.739 53.3678L168.799 53.6478L168.639 51.7478L172.919 51.4478L173.119 49.3478L174.999 49.5278L174.839 51.3278L179.339 51.0078L179.459 52.8678L174.659 53.2278L174.199 58.1478ZM185.251 49.9678L187.131 49.9078L187.191 52.3678L191.751 50.2078L192.551 51.9478L187.251 54.4278L187.451 60.4678L185.551 60.5078L185.251 49.9678ZM196.356 60.3078L199.736 56.2078L196.356 52.1078L197.816 50.9078L200.976 54.7278L204.916 49.9478L206.356 51.1478L197.816 61.5078L196.356 60.3078Z" fill="#023222"/>
<path d="M97.975 34.3228L98.485 24.0178L99.91 24.0928L99.385 34.3978L97.975 34.3228ZM96.175 39.4378L97.21 38.4928L100.765 42.3328L99.745 43.2928L96.175 39.4378ZM100.285 49.9228L100.375 44.3128L100.615 43.8178L106.165 38.8828L107.11 39.9478L101.8 44.6578L101.695 49.9378L100.285 49.9228ZM98.59 64.4428L97.9 63.6778L98.575 55.2178L99.22 54.5878L105.85 53.9128L106.645 54.6028L106.96 63.8128L106.24 64.5328L98.59 64.4428ZM105.535 63.1078L105.25 55.3828L99.925 55.9378L99.385 63.0328L105.535 63.1078Z" fill="#023222"/>
<defs>
<filter id="filter0_i_443_1553" x="0" y="0" width="89" height="90.2157" filterUnits="userSpaceOnUse" color-interpolation-filters="sRGB">
<feFlood flood-opacity="0" result="BackgroundImageFix"/>
<feBlend mode="normal" in="SourceGraphic" in2="BackgroundImageFix" result="shape"/>
<feColorMatrix in="SourceAlpha" type="matrix" values="0 0 0 0 0 0 0 0 0 0 0 0 0 0 0 0 0 0 127 0" result="hardAlpha"/>
<feOffset dy="4"/>
<feGaussianBlur stdDeviation="2"/>
<feComposite in2="hardAlpha" operator="arithmetic" k2="-1" k3="1"/>
<feColorMatrix type="matrix" values="0 0 0 0 0 0 0 0 0 0 0 0 0 0 0 0 0 0 0.25 0"/>
<feBlend mode="normal" in2="shape" result="effect1_innerShadow_443_1553"/>
</filter>
</defs>
</svg>
